<svg width="74" height="29" viewBox="0 0 74 29" fill="none" xmlns="http://www.w3.org/2000/svg">
<path d="M56.0333 16.0015C54.1428 16.0303 51.9111 16.4813 50.2233 17.749C49.7016 18.1517 49.7916 18.6893 50.3666 18.6127C52.2895 18.3633 56.526 17.8256 57.281 18.8622C58.0359 19.8791 56.4381 24.1612 55.7185 26.0628C55.5035 26.6374 55.9702 26.8695 56.4547 26.4276C59.6154 23.5861 60.4421 17.6528 59.7955 16.7886C59.4726 16.3668 57.9238 15.9723 56.0333 16.0015ZM6.39599 17.1466C6.00058 17.1995 5.82143 17.7103 6.23902 18.1138C13.2805 24.9095 22.601 29 32.9464 29C40.3278 29 48.9121 26.5238 54.8202 21.8587C55.7897 21.0889 54.9469 19.9188 53.9586 20.3976C47.3326 23.3937 40.1295 24.8529 33.5747 24.8529C23.8588 24.8529 14.4654 21.9923 6.85026 17.2679C6.68391 17.1626 6.52779 17.1293 6.39599 17.1466Z" fill="#4962CF"/>
<path d="M4.52272 14.2898C3.69318 14.2898 2.94318 14.1364 2.27272 13.8296C1.60227 13.5171 1.07102 13.0654 0.678972 12.4744C0.292608 11.8835 0.0994263 11.1591 0.0994263 10.3011C0.0994263 9.56251 0.241472 8.95456 0.525563 8.47728C0.809654 8.00001 1.19318 7.62217 1.67613 7.34376C2.15909 7.06535 2.69886 6.85512 3.29545 6.71308C3.89204 6.57103 4.49999 6.46308 5.11931 6.38921C5.9034 6.29831 6.53977 6.22444 7.0284 6.16762C7.51704 6.10512 7.87215 6.00569 8.09374 5.86933C8.31534 5.73297 8.42613 5.51137 8.42613 5.20456V5.1449C8.42613 4.40058 8.2159 3.82387 7.79545 3.41478C7.38068 3.00569 6.76136 2.80115 5.93749 2.80115C5.07954 2.80115 4.4034 2.99149 3.90909 3.37217C3.42045 3.74717 3.08238 4.16478 2.89488 4.62501L0.499994 4.07956C0.784085 3.2841 1.19886 2.64206 1.74431 2.15342C2.29545 1.6591 2.92897 1.30115 3.64488 1.07956C4.36079 0.852283 5.11363 0.738647 5.9034 0.738647C6.42613 0.738647 6.98011 0.801147 7.56534 0.926147C8.15624 1.04547 8.70738 1.26706 9.21874 1.59092C9.73579 1.91478 10.1591 2.37785 10.4886 2.98012C10.8182 3.57672 10.9829 4.35228 10.9829 5.30683V14H8.49431V12.2102H8.39204C8.22727 12.5398 7.98011 12.8636 7.65056 13.1818C7.32102 13.5 6.89772 13.7642 6.38068 13.9744C5.86363 14.1847 5.24431 14.2898 4.52272 14.2898ZM5.0767 12.2443C5.78124 12.2443 6.38352 12.1051 6.88352 11.8267C7.3892 11.5483 7.77272 11.1847 8.03409 10.7358C8.30113 10.2813 8.43465 9.79547 8.43465 9.27842V7.59092C8.34375 7.68183 8.16761 7.76706 7.90624 7.8466C7.65056 7.92047 7.35795 7.98581 7.0284 8.04262C6.69886 8.09376 6.37784 8.14206 6.06534 8.18751C5.75284 8.22728 5.49147 8.26137 5.28124 8.28978C4.78693 8.35228 4.33522 8.4574 3.92613 8.60512C3.52272 8.75285 3.19886 8.96592 2.95454 9.24433C2.7159 9.51706 2.59659 9.88069 2.59659 10.3352C2.59659 10.9659 2.82954 11.4432 3.29545 11.7671C3.76136 12.0852 4.35511 12.2443 5.0767 12.2443Z" fill="#E7E7E9"/>
<path d="M14.3771 14V0.909101H16.8231V3.03978H16.9851C17.2578 2.31819 17.7038 1.75569 18.3231 1.35228C18.9425 0.943193 19.6839 0.738647 20.5476 0.738647C21.4226 0.738647 22.1555 0.943193 22.7464 1.35228C23.343 1.76137 23.7834 2.32387 24.0675 3.03978H24.2038C24.5163 2.34092 25.0135 1.7841 25.6953 1.36933C26.3771 0.948874 27.1896 0.738647 28.1328 0.738647C29.3203 0.738647 30.2891 1.11081 31.0391 1.85512C31.7947 2.59944 32.1726 3.7216 32.1726 5.2216V14H29.6243V5.46024C29.6243 4.57387 29.3828 3.93183 28.8999 3.5341C28.4169 3.13637 27.8402 2.93751 27.1697 2.93751C26.3402 2.93751 25.6953 3.19319 25.2351 3.70456C24.7749 4.21024 24.5447 4.86081 24.5447 5.65626V14H22.005V5.29831C22.005 4.58808 21.7834 4.01706 21.3402 3.58524C20.897 3.15342 20.3203 2.93751 19.6101 2.93751C19.1271 2.93751 18.6811 3.06535 18.272 3.32103C17.8686 3.57103 17.5419 3.92047 17.2919 4.36933C17.0476 4.81819 16.9254 5.33808 16.9254 5.92899V14H14.3771Z" fill="#E7E7E9"/>
<path d="M39.3977 14.2898C38.5682 14.2898 37.8182 14.1364 37.1477 13.8296C36.4773 13.5171 35.946 13.0654 35.554 12.4744C35.1676 11.8835 34.9744 11.1591 34.9744 10.3011C34.9744 9.56251 35.1165 8.95456 35.4006 8.47728C35.6847 8.00001 36.0682 7.62217 36.5511 7.34376C37.0341 7.06535 37.5739 6.85512 38.1704 6.71308C38.767 6.57103 39.375 6.46308 39.9943 6.38921C40.7784 6.29831 41.4148 6.22444 41.9034 6.16762C42.392 6.10512 42.7472 6.00569 42.9687 5.86933C43.1903 5.73297 43.3011 5.51137 43.3011 5.20456V5.1449C43.3011 4.40058 43.0909 3.82387 42.6704 3.41478C42.2557 3.00569 41.6364 2.80115 40.8125 2.80115C39.9545 2.80115 39.2784 2.99149 38.7841 3.37217C38.2954 3.74717 37.9574 4.16478 37.7699 4.62501L35.375 4.07956C35.6591 3.2841 36.0739 2.64206 36.6193 2.15342C37.1704 1.6591 37.804 1.30115 38.5199 1.07956C39.2358 0.852283 39.9886 0.738647 40.7784 0.738647C41.3011 0.738647 41.8551 0.801147 42.4403 0.926147C43.0312 1.04547 43.5824 1.26706 44.0937 1.59092C44.6108 1.91478 45.0341 2.37785 45.3636 2.98012C45.6932 3.57672 45.8579 4.35228 45.8579 5.30683V14H43.3693V12.2102H43.267C43.1023 12.5398 42.8551 12.8636 42.5256 13.1818C42.196 13.5 41.7727 13.7642 41.2557 13.9744C40.7386 14.1847 40.1193 14.2898 39.3977 14.2898ZM39.9517 12.2443C40.6562 12.2443 41.2585 12.1051 41.7585 11.8267C42.2642 11.5483 42.6477 11.1847 42.9091 10.7358C43.1761 10.2813 43.3097 9.79547 43.3097 9.27842V7.59092C43.2187 7.68183 43.0426 7.76706 42.7812 7.8466C42.5256 7.92047 42.2329 7.98581 41.9034 8.04262C41.5739 8.09376 41.2528 8.14206 40.9403 8.18751C40.6278 8.22728 40.3665 8.26137 40.1562 8.28978C39.6619 8.35228 39.2102 8.4574 38.8011 8.60512C38.3977 8.75285 38.0739 8.96592 37.8295 9.24433C37.5909 9.51706 37.4716 9.88069 37.4716 10.3352C37.4716 10.9659 37.7045 11.4432 38.1704 11.7671C38.6364 12.0852 39.2301 12.2443 39.9517 12.2443Z" fill="#E7E7E9"/>
<path d="M48.9794 14V12.2529L56.0703 3.24433V3.12501H49.2095V0.909101H59.2493V2.76706L52.4311 11.6648V11.7841H59.4879V14H48.9794Z" fill="#E7E7E9"/>
<path d="M64.1051 18.9091C63.7244 18.9091 63.3778 18.8779 63.0653 18.8154C62.7528 18.7585 62.5199 18.696 62.3665 18.6279L62.9801 16.5398C63.446 16.6648 63.8608 16.7188 64.2244 16.7017C64.5881 16.6847 64.9091 16.5483 65.1875 16.2926C65.4716 16.0369 65.7216 15.6193 65.9375 15.0398L66.2528 14.1705L61.4631 0.909101H64.1903L67.5057 11.0682H67.642L70.9574 0.909101H73.6932L68.2983 15.7472C68.0483 16.429 67.7301 17.0057 67.3437 17.4773C66.9574 17.9546 66.4972 18.3125 65.9631 18.5511C65.429 18.7898 64.8097 18.9091 64.1051 18.9091Z" fill="#E7E7E9"/>
</svg>
